<mxfile host="app.diagrams.net" modified="2024-01-19T05:39:30.464Z" agent="Mozilla/5.0 (X11; Linux x86_64) AppleWebKit/537.36 (KHTML, like Gecko) Chrome/120.0.0.0 Safari/537.36" version="22.1.21" etag="-gM6_G9iLK6H2NFu8vQI" type="github">
  <diagram name="Page-1" id="HJGiqTdUO8JuctZkJESJ">
    <mxGraphModel>
      <root>
        <mxCell id="0" />
        <mxCell id="1" parent="0" />
      </root>
    </mxGraphModel>
  </diagram>
</mxfile>
